<?xml version="1.0" encoding="UTF-8"?>
<svg width="32px" height="32px" viewBox="0 0 32 32" version="1.1" xmlns="http://www.w3.org/2000/svg" xmlns:xlink="http://www.w3.org/1999/xlink">
    <title>dogecoin</title>
    <g id="Symbols" stroke="none" stroke-width="1" fill="none" fill-rule="evenodd">
        <g id="dogecoin" fill="#C2A633">
            <path d="M16,0 C7.16337778,0 0,7.16337778 0,16 C0,24.8366222 7.16337778,32 16,32 C24.8366222,32 32,24.8366222 32,16 C32,7.16337778 24.8366222,0 16,0 Z M16.6286222,24.6416 L10.8343111,24.6416 L10.8343111,16.9381333 L8.79164444,16.9381333 L8.79164444,15.0512 L10.8341333,15.0512 L10.8341333,7.34737778 L15.8071111,7.34737778 C16.9836444,7.34737778 24.7761778,7.10311111 24.7761778,16.1390222 C24.7761778,25.3244444 16.6288,24.6416 16.6288,24.6416 L16.6286222,24.6416 Z M16.384,10.544 L14.0979556,10.544 L14.0979556,15.0510222 L17.6945778,15.0510222 L17.6945778,16.9381333 L14.0979556,16.9381333 L14.0979556,21.4448452 L16.496,21.4448452 C17.1121778,21.4448452 21.5544889,21.5143111 21.547741,16.2012444 C21.5408,10.8881778 17.2391111,10.544 16.384,10.544 L16.384,10.544 Z" id="dodgecoin-bitcoin-alternative"></path>
        </g>
    </g>
</svg>
